<svg xmlns="http://www.w3.org/2000/svg" viewBox="0 0 120 120" width="100%" height="100%">
  <rect width="120" height="120" rx="28" fill="#162033" />
  <g stroke-linecap="round" fill="none">
    <rect x="18" y="28" width="10" height="10" rx="2.5" fill="#f6f4ef" />
    <rect x="18" y="82" width="10" height="10" rx="2.5" fill="#f6f4ef" />
    <path
      d="M 22 88 C 42 88, 42 32, 62 32 C 72 32, 78 60, 88 60"
      stroke="#f6f4ef"
      stroke-width="12"
    />
    <path
      d="M 22 32 C 42 32, 42 88, 62 88 C 72 88, 78 60, 88 60"
      stroke="#162033"
      stroke-width="22"
    />
    <path
      d="M 22 32 C 42 32, 42 88, 62 88 C 72 88, 78 60, 88 60"
      stroke="#f6f4ef"
      stroke-width="12"
    />
    <path d="M 88 60 L 100 60" stroke="#b08a5b" stroke-width="12" />
    <circle cx="102" cy="60" r="10" fill="#b08a5b" stroke="#162033" stroke-width="4" />
  </g>
</svg>
