<svg xmlns="http://www.w3.org/2000/svg" viewBox="0 0 1200 630" width="1200" height="630">
  <rect width="1200" height="630" fill="#f6f4ef" />
  <defs>
    <pattern id="grid" width="40" height="40" patternUnits="userSpaceOnUse">
      <circle cx="2" cy="2" r="1.5" fill="#d8d2c5" opacity="0.7" />
    </pattern>
  </defs>
  <rect width="1200" height="630" fill="url(#grid)" />

  <g transform="translate(60, 260)">
    <text
      x="0"
      y="0"
      font-family="system-ui, -apple-system, sans-serif"
      font-size="88"
      font-weight="700"
      fill="#162033"
      letter-spacing="-0.04em"
    >
      Continuum
    </text>
    <text
      x="4"
      y="80"
      font-family="system-ui, -apple-system, sans-serif"
      font-size="36"
      font-weight="650"
      fill="#b08a5b"
      letter-spacing="-0.02em"
    >
      Deterministic State Reconciliation
    </text>
    <text
      x="4"
      y="130"
      font-family="system-ui, -apple-system, sans-serif"
      font-size="36"
      font-weight="500"
      fill="#5d6678"
      letter-spacing="-0.01em"
    >
      across unpredictable AI mutations.
    </text>
  </g>

  <g transform="translate(680, 75) scale(4)">
    <rect width="120" height="120" rx="28" fill="#ffffff" stroke="#ebe6dc" stroke-width="1" />

    <g stroke-linecap="round" fill="none">
      <rect x="12" y="32" width="8" height="8" rx="2" fill="#294d7a" stroke="none" />
      <rect x="12" y="80" width="8" height="8" rx="2" fill="#162033" stroke="none" />

      <path
        d="M 16 84 C 36 84, 38 36, 58 36 C 68 36, 74 60, 84 60"
        stroke="#162033"
        stroke-width="10"
      />
      <path
        d="M 16 36 C 36 36, 38 84, 58 84 C 68 84, 74 60, 84 60"
        stroke="#ffffff"
        stroke-width="18"
      />
      <path
        d="M 16 36 C 36 36, 38 84, 58 84 C 68 84, 74 60, 84 60"
        stroke="#294d7a"
        stroke-width="10"
      />

      <path d="M 84 60 L 100 60" stroke="#b08a5b" stroke-width="10" />
      <circle cx="102" cy="60" r="10" fill="#b08a5b" stroke="#ffffff" stroke-width="4" />
    </g>
  </g>
</svg>
